<svg width="643" height="147" viewBox="0 0 643 147" fill="none" xmlns="http://www.w3.org/2000/svg">
<path id="ahmed-samir" d="M28.1875 24.625H43.25C43.4583 25.5 48.3333 41.7708 57.875 73.4375H60.625V102.875H54.4375V105.125H60.625V111.438H44V93.375H23.6875V101.062H15.375V114H0.3125V113.125H1.5V101.062H7.6875V76H12.8125L28.1875 24.625ZM35.25 49.8125V49.9375C33.9583 57.0625 31.4583 68.2708 27.75 83.5625H41.75V73.4375H40.5625C37.2292 58.9792 35.5625 51.1042 35.5625 49.8125H35.25ZM-4.0625 73.3125H7.6875V76H-4.0625V73.3125ZM44 112.5H64.0625V114H44V112.5ZM62.9375 24.625H80.6875V60.25H98.5625V24.625H113.562V75.375H107.375V77.625H113.562V114H98.8125C98.6458 114 98.5625 113.896 98.5625 113.688V75.125H80.6875V113.688C80.6875 113.896 80.5833 114 80.375 114H65.5V67.4375H62.9375V24.625ZM113.562 75.375H121.5V77.625H113.562V75.375ZM122.75 24.875H142.625C144.833 32.875 149.333 48.875 156.125 72.875H164C164.208 72.875 165.062 70.0208 166.562 64.3125C169.854 52.9792 173.562 39.8333 177.688 24.875H196.062V82.6875H197.062V93.25H191.5V95.1875H197.062V114H181.438V107.062H183.375V85.6875H180.062V75H178.125L178 75.625H176.312V90.8125H170.875V97.875H166.25V109.938H155.25V102.25H148.5V91.75H144.438V80.75H142.125C142.042 80.1667 141.542 78.25 140.625 75H156.438L156 72.875H140.188L140.625 75H138.562V88.875H139.562V104.062H135.688V106.75H139.562V110.812H125.438V92.5H122.75V24.875ZM138.375 66.5625V67.625C138.375 68.5417 138.438 70.2917 138.562 72.875H140.062C139.062 68.875 138.562 66.7708 138.562 66.5625H138.375ZM180.062 66.75L178.75 72.875H180.062C180.188 70.3333 180.25 68.4792 180.25 67.3125V66.75H180.062ZM133.438 72.875V75H138.375V72.875H133.438ZM164.25 72.875L163.812 75H178C178.375 73.9167 178.562 73.2083 178.562 72.875H164.25ZM180.25 72.875V75H191.062V72.875H180.25ZM156.75 75C157.417 78.2083 157.875 79.8125 158.125 79.8125H159.938V87.8125H162.75V75.4375H163.5V75H156.75ZM197.062 93.25H206.125V95.1875H197.062V93.25ZM121.375 111.562H137.312V112.938H121.375V111.562ZM210.188 25.0625H254V39.625C254 39.8333 253.896 39.9375 253.688 39.9375H227.688V59.1875H251V59.375C251 59.9167 250.917 63.0625 250.75 68.8125C250.625 68.8125 250.562 68.8542 250.562 68.9375H251.625V73.4375H231.438V91.6875H226V93.5H231.438V99.0625H254.312V101.125H252.5V112.062H225.125V114H212.125V82.125H210.188V70.875H195.938V68.9375H210.188V25.0625ZM210.312 68.9375V70.875H217.625V68.9375H210.312ZM265.5 24.625H292.75C304.083 24.625 311.875 28.4792 316.125 36.1875C319.792 42.1875 321.625 52.1458 321.625 66.0625H324.312V87.4375H297.812V85H306.125V66.0625H303.688V58.25C303.688 49.4583 301.729 43.8542 297.812 41.4375C295.521 40.1458 291.833 39.5 286.75 39.5H283.062V65.625H285.562V87.4375H267.688V67.25H265.5V24.625ZM257.562 87.4375H265.625V90.25H285.562V96.125H297.812V90.25H324.312V96.125H306.125V112.062H285.562V114H265.812C265.604 114 265.5 113.896 265.5 113.688V90.25H257.562V87.4375ZM285.562 87.4375H297.812V90.25H285.562V87.4375ZM324.312 87.4375H341.875V90.25H324.312V87.4375ZM388.312 24.6875C398.229 24.6875 404.875 27.875 408.25 34.25C410.583 39.0833 411.75 43.8125 411.75 48.4375H411.625C404.833 49.0208 400.188 49.3125 397.688 49.3125C397.688 46.0208 396.667 43.25 394.625 41C392.708 39.9167 390.938 39.375 389.312 39.375H386.812C382.562 39.375 379.979 41.0208 379.062 44.3125C378.854 45.2708 378.75 46.0208 378.75 46.5625V47.875C378.75 52.5417 381.208 55.9167 386.125 58C386.542 58.375 389.958 59.9375 396.375 62.6875C399.792 64.2708 402.958 66.2292 405.875 68.5625V68.6875H390.188V70.4375H410.875V72.9375H413.5V100.062H408.375V114H368.625V100.062H359.25V90.6875H364.562V87.4375H359.25V85.25H377.438V100.062H396.062V77.75H382.125V70.4375H364.812V68.6875H373.188V68.5625C365.854 63.6875 362.188 56.7917 362.188 47.875V46.6875C362.188 39.2292 364.479 33.5625 369.062 29.6875C373.229 26.3542 379.646 24.6875 388.312 24.6875ZM410.875 68.6875H417.188V70.4375H410.875V68.6875ZM353.25 87.4375H359.25V90.6875H353.25V87.4375ZM446.312 24.625H461.375C461.583 25.5 466.458 41.7708 476 73.4375H478.75V102.875H472.562V105.125H478.75V111.438H462.125V93.375H441.812V101.062H433.5V114H418.438V113.125H419.625V101.062H425.812V76H430.938L446.312 24.625ZM453.375 49.8125V49.9375C452.083 57.0625 449.583 68.2708 445.875 83.5625H459.875V73.4375H458.688C455.354 58.9792 453.688 51.1042 453.688 49.8125H453.375ZM414.062 73.3125H425.812V76H414.062V73.3125ZM462.125 112.5H482.188V114H462.125V112.5ZM481 24.875H500.875C503.083 32.875 507.583 48.875 514.375 72.875H522.25C522.458 72.875 523.312 70.0208 524.812 64.3125C528.104 52.9792 531.812 39.8333 535.938 24.875H554.312V82.6875H555.312V93.25H549.75V95.1875H555.312V114H539.688V107.062H541.625V85.6875H538.312V75H536.375L536.25 75.625H534.562V90.8125H529.125V97.875H524.5V109.938H513.5V102.25H506.75V91.75H502.688V80.75H500.375C500.292 80.1667 499.792 78.25 498.875 75H514.688L514.25 72.875H498.438L498.875 75H496.812V88.875H497.812V104.062H493.938V106.75H497.812V110.812H483.688V92.5H481V24.875ZM496.625 66.5625V67.625C496.625 68.5417 496.688 70.2917 496.812 72.875H498.312C497.312 68.875 496.812 66.7708 496.812 66.5625H496.625ZM538.312 66.75L537 72.875H538.312C538.438 70.3333 538.5 68.4792 538.5 67.3125V66.75H538.312ZM491.688 72.875V75H496.625V72.875H491.688ZM522.5 72.875L522.062 75H536.25C536.625 73.9167 536.812 73.2083 536.812 72.875H522.5ZM538.5 72.875V75H549.312V72.875H538.5ZM515 75C515.667 78.2083 516.125 79.8125 516.375 79.8125H518.188V87.8125H521V75.4375H521.75V75H515ZM555.312 93.25H564.375V95.1875H555.312V93.25ZM479.625 111.562H495.562V112.938H479.625V111.562ZM567.625 24.4375H584.5C584.667 24.4792 584.75 24.5833 584.75 24.75V68.25C584.75 68.4583 584.667 68.5625 584.5 68.5625H582.5V113.688C582.5 113.896 582.396 114 582.188 114H567.625C567.417 114 567.312 113.896 567.312 113.688V67.5H562.812C562.604 67.5 562.5 67.3958 562.5 67.1875V65.25C562.542 65.0417 562.646 64.9375 562.812 64.9375H567.312V24.75C567.354 24.5417 567.458 24.4375 567.625 24.4375ZM567.438 64.9375V67.5H576.062V64.9375H567.438ZM587.5 24.625H618.125C628.375 24.625 635 28.2292 638 35.4375C639.292 39.1458 639.938 43.3958 639.938 48.1875V51.9375C639.938 60.6042 638.042 67.2083 634.25 71.75H627.75V75.0625H637.688V96.4375H631.812V99.75H640.688V112.375H622.062V92.1875H614.875V79.125H602.375V101.25H605.062V114H587.812C587.604 114 587.5 113.896 587.5 113.688V77.8125H595.188V75.25H587.5V24.625ZM605.062 39.1875V64.4375H609.312C615.688 64.4375 619.375 63.8333 620.375 62.625C621.417 61.9583 622.229 60.6042 622.812 58.5625H629.438V55.375H623.438V55.6875C623.104 57.6042 622.854 58.5625 622.688 58.5625H614.125V55.375H623.125C623.333 55.375 623.438 55.2917 623.438 55.125C623.521 52.5417 623.562 51.0833 623.562 50.75C623.562 45.1667 622.604 41.75 620.688 40.5C619.188 39.625 616.438 39.1875 612.438 39.1875H605.062Z" fill="black"/>
</svg>
