<svg width="325.8" height="185.13714285714286" viewBox="0 0 315 179" class="looka-1j8o68f">
    <defs id="SvgjsDefs2534"></defs>
    <g id="SvgjsG2535" featurekey="rootContainer" transform="matrix(1,0,0,1,0,0)" fill="#f8e018">
        <rect width="315" height="179"></rect>
    </g>
    <g id="SvgjsG2536" featurekey="uKAeQw-0"
        transform="matrix(4.567429000921157,0,0,4.567429000921157,22.899221333854427,-12.386000704917421)"
        fill="#2a3347">
        <path
            d="M4.4141 6.016 l2.3535 0 c0.032549 0.13672 0.79752 2.6823 2.2949 7.6367 l0.41992 0 l0 4.5996 l-0.9668 0 l0 0.36133 l0.9668 0 l0 0.98633 l-2.5977 0 l0 -2.832 l-3.1836 0 l0 1.2012 l-1.2891 0 l0 2.0313 l-2.3633 0 l0 -0.13672 l0.18555 0 l0 -1.8945 l0.9668 0 l0 -3.916 l0.80078 0 z M5.5176 9.951 l0 0.029306 c-0.20183 1.1067 -0.59245 2.8581 -1.1719 5.2539 l2.1875 0 l0 -1.582 l-0.18555 0 c-0.52083 -2.2656 -0.78125 -3.4993 -0.78125 -3.7012 l-0.048828 0 z M1.3477 13.349599999999999 l0.21484 0 c0 0.058594 0.029297 0.10742 0.087891 0.14648 c0.0065136 -0.058594 0.039063 -0.10742 0.097656 -0.14648 l0.16602 0 l0 0.019531 c-0.11067 0.15625 -0.16602 0.24414 -0.16602 0.26367 c0.026045 0.058594 0.087891 0.153 0.18555 0.2832 l0 0.048828 l-0.087891 0 c-0.091143 0 -0.15625 -0.065107 -0.19531 -0.19531 c-0.097656 0.13021 -0.153 0.19531 -0.16602 0.19531 l-0.11719 0 c-0.032549 0 -0.048828 -0.016279 -0.048828 -0.048828 c0.019531 0 0.084639 -0.087891 0.19531 -0.26367 l0 -0.039063 c-0.11067 -0.16276 -0.16602 -0.25065 -0.16602 -0.26367 z M-0.63476 13.6328 l1.8359 0 l0 0.41992 l-1.8359 0 l0 -0.41992 z M9.5508 13.935500000000001 l0.49805 -0.0000095367 l0 0.11719 l-0.30273 0.38086 l0.2832 0 c0.026045 0.0065136 0.039063 0.022793 0.039063 0.048838 l0 0.048828 c0 0.032549 -0.013018 0.048828 -0.039063 0.048828 l-0.49805 0 l0 -0.11719 l0.30273 -0.38086 l-0.2832 0 l0 -0.14648 z M5.9473 14.550799999999999 l0.13671 -0.0000095367 l0 0.23438 l0.26367 -0.23438 l0.13672 0 l0 0.029297 l-0.20508 0.23438 c0.15625 0.22136 0.23438 0.34506 0.23438 0.3711 l-0.14648 0 c-0.013018 0 -0.084629 -0.084639 -0.21483 -0.25391 c-0.019531 0 -0.042314 0.022783 -0.068359 0.068359 l0 0.18555 l-0.13672 0 l0 -0.63477 z M9.5996 14.7656 l0.28318 0 c0.14323 0.019531 0.21484 0.091143 0.21484 0.21484 l-0.068359 0.11719 c0.045576 0.05208 0.068359 0.14648 0.068359 0.2832 l0 0.019531 l-0.14648 0 c-0.013018 -0.15625 -0.035801 -0.23438 -0.06835 -0.23438 l-0.16602 0 l0 0.23438 l-0.11719 0 c-0.032549 0 -0.048828 -0.016279 -0.048828 -0.048828 l0 -0.53711 c0.0065136 -0.032549 0.022793 -0.048828 0.048838 -0.048828 z M9.7168 14.9023 l0 0.14648 l0.16602 0 c0.032549 0 0.048828 -0.016279 0.048828 -0.048828 l0 -0.097656 l-0.21484 0 z M9.5508 15.585899999999999 l0.44921 -0.0000095367 c0.032549 0.0065136 0.048828 0.022793 0.048828 0.048838 l0 0.048828 c0 0.032549 -0.016279 0.048828 -0.048828 0.048828 l-0.13672 0 l0 0.49805 l-0.16602 0 l0 -0.49805 l-0.14648 0 c-0.032549 0 -0.048828 -0.016279 -0.048828 -0.048828 l0 -0.048828 c0.0065136 -0.032549 0.022793 -0.048828 0.048838 -0.048828 z M9.502 16.416 l0.11719 0 c0.045576 0 0.094404 0.13347 0.14648 0.40039 l0.019531 0 c0.078125 -0.23438 0.11719 -0.36784 0.11719 -0.40039 l0.16602 0 c-0.1237 0.42317 -0.20183 0.63477 -0.23438 0.63477 l-0.13672 0 z M4.4141 16.9531 l0 0.12695 c0 0.026045 -0.12695 0.078125 -0.38086 0.15625 l0 0.029297 l0.38086 0.13672 l0 0.14648 l-0.5957 -0.21484 l0 -0.16602 z M0.75192 17.2363 l0.078115 0 c0.05208 0 0.13672 0.21484 0.25391 0.64453 l-0.13672 0 c0 -0.013018 -0.016279 -0.061846 -0.048828 -0.14648 l-0.21484 0 c-0.013018 0.097656 -0.035801 0.14648 -0.06835 0.14648 l-0.11719 0 c0.13672 -0.42969 0.22136 -0.64453 0.25391 -0.64453 z M9.8145 17.2363 l0.068359 0 c0.15625 0 0.25065 0.11067 0.2832 0.33203 c-0.045576 0.22136 -0.14648 0.33203 -0.30273 0.33203 c-0.22136 -0.039063 -0.33203 -0.14974 -0.33203 -0.33203 c0.032549 -0.22136 0.12695 -0.33203 0.2832 -0.33203 z M9.6973 17.5488 l0 0.019541 c0 0.084639 0.039063 0.14975 0.11719 0.19532 l0.068359 0 c0.078125 -0.045576 0.11719 -0.11068 0.11719 -0.19532 l0 -0.019531 c-0.013018 -0.1237 -0.068359 -0.18555 -0.16602 -0.18555 c-0.091143 0.032549 -0.13672 0.094395 -0.13672 0.18554 z M0.78121 17.4512 c-0.032549 0.10417 -0.048828 0.1595 -0.048828 0.16602 l0.11719 0 l-0.048828 -0.16602 l-0.019531 0 z M6.8848 19.76561 l3.1445 0 l0 0.23438 l-3.1445 0 l0 -0.23438 z M11.9785175 6.006 l2.7734 0 l0 5.5762 l2.8027 0 l0 -5.5762 l2.3535 0 l0 7.9492 l-0.9668 0 l0 0.35156 l0.9668 0 l0 5.6934 l-2.3047 0 c-0.032549 0 -0.048828 -0.016279 -0.048828 -0.048828 l0 -6.0449 l-2.8027 0 l0 6.0449 c0 0.032549 -0.016279 0.048828 -0.048828 0.048828 l-2.3242 0 l0 -7.2949 l-0.40039 0 l0 -6.6992 z M19.9082375 13.9551 l1.2402 0 l0 0.35156 l-1.2402 0 l0 -0.35156 z M22.60937125 5.996 l3.125 -0.0000095367 c0.34505 1.2565 1.0547 3.7728 2.1289 7.5488 l1.2305 0 c0.032549 0 0.16602 -0.45247 0.40039 -1.3574 c0.52083 -1.7773 1.1035 -3.8411 1.748 -6.1914 l2.8906 0 l0 9.082 l0.16602 0 l0 1.6602 l-0.87891 0 l0 0.30273 l0.87891 0 l0 2.959 l-2.4609 0 l0 -1.084 l0.30273 0 l0 -3.3594 l-0.51758 0 l0 -1.6797 l-0.3125 0 l-0.019531 0.087891 l-0.26367 0 l0 2.3926 l-0.84961 0 l0 1.1133 l-0.73242 0 l0 1.8945 l-1.7285 0 l0 -1.2109 l-1.0645 0 l0 -1.6602 l-0.63477 0 l0 -1.7188 l-0.36133 0 c-0.013018 -0.097656 -0.091143 -0.39714 -0.23438 -0.89844 l2.4805 0 l-0.068359 -0.33203 l-2.4805 0 l0.068359 0.33203 l-0.33203 0 l0 2.168 l0.16602 0 l0 2.3926 l-0.61523 0 l0 0.42969 l0.61523 0 l0 0.63477 l-2.2266 0 l0 -2.8809 l-0.41992 0 l0 -10.625 z M25.07033125 12.5488 l0 0.16602 c0 0.14323 0.0065136 0.41992 0.019531 0.83008 l0.23438 0 c-0.15625 -0.63151 -0.23438 -0.96354 -0.23438 -0.99609 l-0.019531 0 z M31.62303125 12.5684 l-0.21484 0.97656 l0.21484 0 c0.013018 -0.40364 0.019531 -0.69661 0.019531 -0.87891 l0 -0.097656 l-0.019531 0 z M24.28903125 13.5449 l0 0.33203 l0.78125 0 l0 -0.33203 l-0.78125 0 z M29.13283125 13.5449 l-0.068359 0.33203 l2.2266 0 c0.065107 -0.17578 0.097656 -0.28646 0.097656 -0.33203 l-2.2559 0 z M31.642531249999998 13.5449 l0 0.33203 l1.709 0 l0 -0.33203 l-1.709 0 z M27.95113125 13.876999999999999 c0.11067 0.5013 0.18229 0.75195 0.21484 0.75195 l0.2832 0 l0 1.25 l0.44922 0 l0 -1.9336 l0.11719 0 l0 -0.068359 l-1.0645 0 z M34.298531249999996 16.7383 l1.416 0 l0 0.30273 l-1.416 0 l0 -0.30273 z M34.43553125 17.1582 l0.11719 -0.0000095367 l0 0.21484 l0.19531 0 l0 -0.16602 c0 -0.032549 0.016279 -0.048828 0.048828 -0.048828 l0.039063 0 c0.032549 0.0065136 0.048828 0.022793 0.048828 0.048838 l0 0.44922 c0 0.032549 -0.016279 0.048828 -0.048828 0.048828 l-0.087891 0 l0 -0.21484 l-0.19531 0 l0 0.21484 l-0.11719 0 l0 -0.54688 z M34.43553125 17.8711 l0.33203 -0.0000095367 c0.032549 0.0065136 0.048828 0.022793 0.048828 0.048838 l0 0.068359 l-0.26367 0 l0 0.097656 l0.21484 0 l0 0.11719 l-0.21484 0 l0 0.21484 l-0.11719 0 l0 -0.54688 z M34.46453125 18.584 l0.33202 0 c0.026045 0 0.039063 0.013018 0.039063 0.039063 l0 0.048828 l-0.25391 0.33203 l0.25391 0 l0 0.11719 l-0.40039 0 c-0.032549 0 -0.048828 -0.022783 -0.048828 -0.068359 c0.05208 -0.078125 0.13997 -0.19531 0.26367 -0.35156 l-0.23438 0 l0 -0.078125 c0.0065136 -0.026045 0.022793 -0.039063 0.048838 -0.039063 z M34.43553125 19.28708 l0.11719 -0.0000095367 l0 0.3125 l0.029297 0.11719 l0.11719 0 c0.032549 0 0.048828 -0.016279 0.048828 -0.048828 l0 -0.33203 c0 -0.032549 0.016279 -0.048828 0.048828 -0.048828 l0.039063 0 c0.032549 0.0065136 0.048828 0.022793 0.048828 0.048838 l0 0.2832 c0 0.14323 -0.071611 0.21484 -0.21484 0.21484 l-0.039063 0 c-0.091143 0 -0.15625 -0.039063 -0.19531 -0.11719 l0 -0.42969 z M22.39453125 19.6191 l2.5098 0 l0 0.21484 l-2.5098 0 l0 -0.21484 z M38.1816375 6.016 l6.8945 0 l0 2.2852 c0 0.032549 -0.016279 0.048828 -0.048828 0.048828 l-4.0918 0 l0 3.0371 l3.6719 0 l0 0.019531 c0 0.091143 -0.016279 0.58594 -0.048828 1.4844 c-0.013018 0 -0.019531 0.0097656 -0.019531 0.029297 l0.16602 0 l0 0.70313 l-3.1836 0 l0 2.8711 l-0.84961 0 l0 0.2832 l0.84961 0 l0 0.86914 l3.6035 0 l0 0.33203 l-0.2832 0 l0 1.7188 l-4.3066 0 l0 0.30273 l-2.0508 0 l0 -5.0098 l-0.30273 0 l0 -1.7676 l-2.2363 0 l0 -0.30273 l2.2363 0 l0 -6.9043 z M38.2011375 12.9199 l0 0.30273 l1.1523 0 l0 -0.30273 l-1.1523 0 z M41.7363375 16.9434 l0.16602 -0.0000095367 l0 0.23438 l0.019531 0 c0 -0.045576 0.071611 -0.1237 0.21484 -0.23438 l0.16602 0 l-0.23438 0.25391 l0.25391 0.38086 l-0.16602 0 c-0.1237 -0.17578 -0.19206 -0.26367 -0.20508 -0.26367 c-0.032549 0.0065136 -0.048828 0.022793 -0.048828 0.048838 l0 0.21484 l-0.16602 0 l0 -0.63477 z M42.5566375 16.9434 l0.33203 0 c0.10417 0 0.17578 0.061846 0.21484 0.18555 c0 0.019531 -0.032549 0.074873 -0.097656 0.16602 c0.045576 0 0.078125 0.094404 0.097656 0.2832 l-0.11719 0 c-0.032549 0 -0.058594 -0.078125 -0.078125 -0.23438 l-0.18555 0 l0 0.23438 l-0.16602 0 l0 -0.63477 z M43.6211375 16.9434 l0.0879 -0.0000095367 c0.14323 0 0.23112 0.094404 0.26367 0.2832 l0 0.087891 c0 0.05208 -0.022783 0.10742 -0.068359 0.16602 l0 0.029297 c0.045576 0 0.068359 0.013018 0.068359 0.039063 s-0.022783 0.05209 -0.068359 0.078135 c-0.026045 0 -0.05209 -0.026045 -0.078135 -0.078125 l-0.11719 0.029297 l-0.087891 0 c-0.15625 0 -0.24414 -0.11719 -0.26367 -0.35156 c0.045576 -0.1888 0.13347 -0.2832 0.26367 -0.2832 z M43.5234375 17.2266 l0 0.068369 c0 0.11067 0.055342 0.16602 0.16602 0.16602 l0.019531 0 l0 -0.029297 l-0.039063 0 l0 -0.019531 c0 -0.026045 0.022783 -0.048828 0.068359 -0.068359 l0.068359 0.039063 c0 -0.0065136 0.0065136 -0.05209 0.019531 -0.13673 c-0.0065136 -0.1237 -0.068359 -0.18555 -0.18555 -0.18555 c-0.078125 0.019531 -0.11719 0.074873 -0.11719 0.16602 z M42.7226375 17.0801 l0 0.14648 l0.16602 0 c0.032549 0 0.048828 -0.016279 0.048828 -0.048828 l0 -0.048828 c0 -0.032549 -0.016279 -0.048828 -0.048828 -0.048828 l-0.16602 0 z M44.9882375 18.1152 l0.13672 0 l0 0.029297 c0 0.27995 -0.022783 0.41992 -0.068359 0.41992 s-0.068359 -0.10091 -0.068359 -0.30273 l0 -0.14648 z M44.9882375 18.584 l0.13672 0 l0 0.14648 l-0.13672 0 l0 -0.14648 z M47.640625625 6.016 l4.248 0 c1.7773 0 3.0013 0.60222 3.6719 1.8066 c0.55989 0.94401 0.83984 2.5032 0.83984 4.6777 l0.41992 0 l0 3.3398 l-4.1309 0 l0 -0.37109 l1.2891 0 l0 -2.9688 l-0.37109 0 l0 -1.2207 c0 -1.3737 -0.30599 -2.2493 -0.91797 -2.627 c-0.36458 -0.20833 -0.944 -0.3125 -1.7383 -0.3125 l-0.56641 0 l0 4.0918 l0.38086 0 l0 3.4082 l-2.8027 0 l0 -3.1445 l-0.32227 0 l0 -6.6797 z M53.675765625 14.8047 l0.13672 0 l0 0.35156 l0.078125 0 l0 0.11719 l-0.078125 0 l0 0.14648 l-0.13672 0 l0 -0.14648 l-0.25391 0 l0 -0.087891 c0.16927 -0.23438 0.25391 -0.36133 0.25391 -0.38086 z M53.558565625 15.1562 l0.11719 0 l0 -0.13672 c-0.019531 0 -0.058594 0.045576 -0.11719 0.13672 z M50.902365625 15.136700000000001 l0.13672 -0.000019073 c0.019531 0 0.068359 0.055342 0.14648 0.16602 c0.065107 -0.078125 0.097656 -0.13347 0.097656 -0.16602 l0.15625 0 l0 0.019531 c-0.10417 0.14974 -0.15625 0.24414 -0.15625 0.2832 l0.18555 0.30273 l-0.18555 0 c0 -0.05208 -0.039063 -0.11393 -0.11719 -0.18554 c-0.058594 0.11719 -0.10742 0.17903 -0.14648 0.18555 l-0.13672 0 c0.10417 -0.1888 0.17253 -0.28971 0.20508 -0.30272 z M46.390615625 15.8398 l1.2695 0 l0 0.44922 l3.1055 0 l0 0.91797 l1.9238 0 l0 -0.91797 l4.1309 0 l0 0.91797 l-2.8418 0 l0 2.4902 l-3.2129 0 l0 0.30273 l-3.0859 0 c-0.026045 0 -0.039063 -0.016279 -0.039063 -0.048828 l0 -3.6621 l-1.25 0 l0 -0.44922 z M50.765665625 15.8398 l1.9238 0 l0 0.44922 l-1.9238 0 l0 -0.44922 z M56.820265625 15.8398 l2.7539 0 l0 0.44922 l-2.7539 0 l0 -0.44922 z M54.310565625 17.2949 l0.16601 0 c0.11067 0.30599 0.17903 0.51758 0.20508 0.63477 l-0.11719 0 c-0.026045 0 -0.048828 -0.045576 -0.068359 -0.13672 l-0.18555 0 c-0.032549 0 -0.055332 0.045576 -0.06835 0.13672 l-0.14648 0 l0 -0.019531 c0 -0.013018 0.071611 -0.2181 0.21484 -0.61523 z M54.847665625 17.2949 l0.14648 0.0000095367 l0.11719 0.40039 l0.019531 0 c0 -0.026045 0.039063 -0.15951 0.11719 -0.4004 l0.14648 0 c0 0.05208 -0.065107 0.26367 -0.19531 0.63477 l-0.13672 0 c-0.039063 0 -0.11067 -0.21159 -0.21484 -0.63477 z M55.628865625 17.2949 l0.16602 0 l0 0.63477 l-0.16602 0 l0 -0.63477 z M56.068365625 17.2949 l0.26367 -0.0000095367 c0.20183 0 0.30273 0.11719 0.30273 0.35156 c0 0.16276 -0.10091 0.25717 -0.30273 0.28321 l-0.26367 0 l0 -0.63477 z M56.234365625 17.4414 l0 0.35156 l0.14648 0 c0.019531 0 0.048828 -0.032549 0.087891 -0.097656 l0 -0.16602 c0 -0.019531 -0.029297 -0.048828 -0.087891 -0.087891 l-0.14648 0 z M54.378865625 17.4902 c0 0.019531 -0.016279 0.081377 -0.048828 0.18555 l0.11719 0 c-0.026045 -0.10417 -0.039063 -0.16602 -0.039063 -0.18555 l-0.029297 0 z"></path>
    </g>
    <g id="SvgjsG2537" featurekey="uKAeQw-1"
        transform="matrix(5.352180478101078,0,0,5.352180478101078,24.024732392739377,56.90868159821198)"
        fill="#2a3347">
        <path
            d="M4.7266 6.045 c1.5495 0 2.5879 0.49806 3.1152 1.4941 c0.36458 0.75521 0.54688 1.4941 0.54688 2.2168 l-0.019531 0 c-1.0612 0.091143 -1.7871 0.13672 -2.1777 0.13672 c0 -0.51433 -0.1595 -0.94727 -0.47852 -1.2988 c-0.29948 -0.16927 -0.57617 -0.25391 -0.83008 -0.25391 l-0.39063 0 c-0.66406 0 -1.0677 0.25716 -1.2109 0.77148 c-0.032549 0.14974 -0.048828 0.26692 -0.048828 0.35156 l0 0.20508 c0 0.72917 0.38411 1.2565 1.1523 1.582 c0.065107 0.058594 0.59896 0.30273 1.6016 0.73242 c0.53386 0.24739 1.0286 0.55338 1.4844 0.91796 l0 0.019531 l-2.4512 0 l0 0.27344 l3.2324 0 l0 0.39063 l0.41016 0 l0 4.2383 l-0.80078 0 l0 2.1777 l-6.2109 0 l0 -2.1777 l-1.4648 0 l0 -1.4648 l0.83008 0 l0 -0.50781 l-0.83008 0 l0 -0.3418 l2.8418 0 l0 2.3145 l2.9102 0 l0 -3.4863 l-2.1777 0 l0 -1.1426 l-2.7051 0 l0 -0.27344 l1.3086 0 l0 -0.019531 c-1.1458 -0.76172 -1.7188 -1.8392 -1.7188 -3.2324 l0 -0.18555 c0 -1.1653 0.35808 -2.0508 1.0742 -2.6563 c0.65104 -0.52083 1.6536 -0.78125 3.0078 -0.78125 z M8.252 12.9199 l0.98633 0 l0 0.27344 l-0.98633 0 l0 -0.27344 z M-0.75198 15.849599999999999 l0.9375 0 l0 0.50781 l-0.9375 0 l0 -0.50781 z M5.5078 15.849599999999999 l0.29296 -0.0000095367 c0.032549 0.0065136 0.048828 0.022793 0.048828 0.048838 l0 0.068359 l-0.25391 0 l0 0.087891 l0.22461 0 l0 0.068359 c0 0.032549 -0.013018 0.048828 -0.039063 0.048828 l-0.18555 0 l0 0.097656 l0.25391 0 l0 0.068359 c0 0.026045 -0.016279 0.039063 -0.048828 0.039063 l-0.29297 0 c-0.032549 0 -0.048828 -0.013018 -0.048828 -0.039063 l0 -0.43945 c0.0065136 -0.032549 0.022793 -0.048828 0.048838 -0.048828 z M5.3906 16.543 l0.087871 0.0000095367 c0.013018 0 0.068359 0.058594 0.16602 0.17578 c0.045576 -0.11719 0.081387 -0.17578 0.10743 -0.17578 l0.068359 0 c0.032549 0 0.048828 0.013018 0.048828 0.039063 c-0.13672 0.15625 -0.20508 0.31901 -0.20508 0.48828 l-0.068359 0 c-0.032549 0 -0.055332 -0.091143 -0.06835 -0.27344 c-0.091143 -0.1237 -0.13672 -0.20834 -0.13672 -0.25392 z M5.3222 17.2266 l0.087881 -0.0000095367 c0.039063 0 0.078125 0.10091 0.11719 0.30273 l0.048828 0 c0.039063 -0.20183 0.074873 -0.30273 0.10742 -0.30273 l0.097656 0 c0.026045 0.0065136 0.039063 0.022793 0.039063 0.048838 l0 0.42969 c0 0.032549 -0.013018 0.048828 -0.039063 0.048828 l-0.068359 0 l0 -0.29297 l-0.029297 0 l-0.087891 0.29297 l-0.068359 0 c-0.032549 0 -0.071611 -0.097656 -0.11719 -0.29297 l-0.019531 0 l0 0.29297 l-0.068359 0 c-0.032549 0 -0.048828 -0.016279 -0.048828 -0.048828 l0 -0.42969 c0.0065136 -0.032549 0.022793 -0.048828 0.048838 -0.048828 z M7.9979 17.9395 l0.23438 0 c0.1237 0 0.18555 0.061846 0.18555 0.18555 c-0.032549 0 -0.048828 0.013018 -0.048828 0.039063 c0.045576 0.058594 0.068359 0.11394 0.068359 0.16602 c-0.039063 0.091143 -0.1237 0.13672 -0.25391 0.13672 l-0.13672 0 c-0.032549 0 -0.048828 -0.016279 -0.048828 -0.048828 l0 -0.47852 z M8.1347 18.0566 l0 0.087891 l0.097656 0 c0.026045 0 0.039063 -0.016279 0.039063 -0.048828 l0 -0.039063 l-0.13672 0 z M8.1347 18.2324 l0 0.11719 l0.11719 0 c0.032549 0 0.048828 -0.016279 0.048828 -0.048828 l0 -0.019531 c0 -0.032549 -0.016279 -0.048828 -0.048828 -0.048828 l-0.11719 0 z M7.9979 18.623 l0.097656 0 c0.032549 0 0.10091 0.10742 0.20508 0.32227 l0.019531 0 l0 -0.32227 l0.11719 0 l0 0.47852 c0 0.032549 -0.016279 0.048828 -0.048828 0.048828 l-0.048828 0 c-0.013018 0 -0.087891 -0.097656 -0.22461 -0.29297 l0 0.24414 c0 0.032549 -0.016279 0.048828 -0.048828 0.048828 l-0.019531 0 c-0.032549 0 -0.048828 -0.016279 -0.048828 -0.048828 l0 -0.47852 z M15.123084375000001 6.016 l2.3535 0 c0.032549 0.13672 0.79752 2.6823 2.2949 7.6367 l0.41992 0 l0 4.5996 l-0.9668 0 l0 0.36133 l0.9668 0 l0 0.98633 l-2.5977 0 l0 -2.832 l-3.1836 0 l0 1.2012 l-1.2891 0 l0 2.0313 l-2.3633 0 l0 -0.13672 l0.18555 0 l0 -1.8945 l0.9668 0 l0 -3.916 l0.80078 0 z M16.226584375 9.951 l0 0.029306 c-0.20183 1.1067 -0.59245 2.8581 -1.1719 5.2539 l2.1875 0 l0 -1.582 l-0.18555 0 c-0.52083 -2.2656 -0.78125 -3.4993 -0.78125 -3.7012 l-0.048828 0 z M12.056684375 13.349599999999999 l0.21484 0 c0 0.058594 0.029297 0.10742 0.087891 0.14648 c0.0065136 -0.058594 0.039063 -0.10742 0.097656 -0.14648 l0.16602 0 l0 0.019531 c-0.11067 0.15625 -0.16602 0.24414 -0.16602 0.26367 c0.026045 0.058594 0.087891 0.153 0.18555 0.2832 l0 0.048828 l-0.087891 0 c-0.091143 0 -0.15625 -0.065107 -0.19531 -0.19531 c-0.097656 0.13021 -0.153 0.19531 -0.16602 0.19531 l-0.11719 0 c-0.032549 0 -0.048828 -0.016279 -0.048828 -0.048828 c0.019531 0 0.084639 -0.087891 0.19531 -0.26367 l0 -0.039063 c-0.11067 -0.16276 -0.16602 -0.25065 -0.16602 -0.26367 z M10.074224375 13.6328 l1.8359 0 l0 0.41992 l-1.8359 0 l0 -0.41992 z M20.259784375000002 13.935500000000001 l0.49805 -0.0000095367 l0 0.11719 l-0.30273 0.38086 l0.2832 0 c0.026045 0.0065136 0.039063 0.022793 0.039063 0.048838 l0 0.048828 c0 0.032549 -0.013018 0.048828 -0.039063 0.048828 l-0.49805 0 l0 -0.11719 l0.30273 -0.38086 l-0.2832 0 l0 -0.14648 z M16.656284375 14.550799999999999 l0.13671 -0.0000095367 l0 0.23438 l0.26367 -0.23438 l0.13672 0 l0 0.029297 l-0.20508 0.23438 c0.15625 0.22136 0.23438 0.34506 0.23438 0.3711 l-0.14648 0 c-0.013018 0 -0.084629 -0.084639 -0.21483 -0.25391 c-0.019531 0 -0.042314 0.022783 -0.068359 0.068359 l0 0.18555 l-0.13672 0 l0 -0.63477 z M20.308584375000002 14.7656 l0.28318 0 c0.14323 0.019531 0.21484 0.091143 0.21484 0.21484 l-0.068359 0.11719 c0.045576 0.05208 0.068359 0.14648 0.068359 0.2832 l0 0.019531 l-0.14648 0 c-0.013018 -0.15625 -0.035801 -0.23438 -0.06835 -0.23438 l-0.16602 0 l0 0.23438 l-0.11719 0 c-0.032549 0 -0.048828 -0.016279 -0.048828 -0.048828 l0 -0.53711 c0.0065136 -0.032549 0.022793 -0.048828 0.048838 -0.048828 z M20.425784375 14.9023 l0 0.14648 l0.16602 0 c0.032549 0 0.048828 -0.016279 0.048828 -0.048828 l0 -0.097656 l-0.21484 0 z M20.259784375000002 15.585899999999999 l0.44921 -0.0000095367 c0.032549 0.0065136 0.048828 0.022793 0.048828 0.048838 l0 0.048828 c0 0.032549 -0.016279 0.048828 -0.048828 0.048828 l-0.13672 0 l0 0.49805 l-0.16602 0 l0 -0.49805 l-0.14648 0 c-0.032549 0 -0.048828 -0.016279 -0.048828 -0.048828 l0 -0.048828 c0.0065136 -0.032549 0.022793 -0.048828 0.048838 -0.048828 z M20.210984375000002 16.416 l0.11719 0 c0.045576 0 0.094404 0.13347 0.14648 0.40039 l0.019531 0 c0.078125 -0.23438 0.11719 -0.36784 0.11719 -0.40039 l0.16602 0 c-0.1237 0.42317 -0.20183 0.63477 -0.23438 0.63477 l-0.13672 0 z M15.123084375000001 16.9531 l0 0.12695 c0 0.026045 -0.12695 0.078125 -0.38086 0.15625 l0 0.029297 l0.38086 0.13672 l0 0.14648 l-0.5957 -0.21484 l0 -0.16602 z M11.460904375 17.2363 l0.078115 0 c0.05208 0 0.13672 0.21484 0.25391 0.64453 l-0.13672 0 c0 -0.013018 -0.016279 -0.061846 -0.048828 -0.14648 l-0.21484 0 c-0.013018 0.097656 -0.035801 0.14648 -0.06835 0.14648 l-0.11719 0 c0.13672 -0.42969 0.22136 -0.64453 0.25391 -0.64453 z M20.523484375000002 17.2363 l0.068359 0 c0.15625 0 0.25065 0.11067 0.2832 0.33203 c-0.045576 0.22136 -0.14648 0.33203 -0.30273 0.33203 c-0.22136 -0.039063 -0.33203 -0.14974 -0.33203 -0.33203 c0.032549 -0.22136 0.12695 -0.33203 0.2832 -0.33203 z M20.406284375 17.5488 l0 0.019541 c0 0.084639 0.039063 0.14975 0.11719 0.19532 l0.068359 0 c0.078125 -0.045576 0.11719 -0.11068 0.11719 -0.19532 l0 -0.019531 c-0.013018 -0.1237 -0.068359 -0.18555 -0.16602 -0.18555 c-0.091143 0.032549 -0.13672 0.094395 -0.13672 0.18554 z M11.490194375 17.4512 c-0.032549 0.10417 -0.048828 0.1595 -0.048828 0.16602 l0.11719 0 l-0.048828 -0.16602 l-0.019531 0 z M17.593784375 19.76561 l3.1445 0 l0 0.23438 l-3.1445 0 l0 -0.23438 z M22.384761875 5.996 l3.125 -0.0000095367 c0.34505 1.2565 1.0547 3.7728 2.1289 7.5488 l1.2305 0 c0.032549 0 0.16602 -0.45247 0.40039 -1.3574 c0.52083 -1.7773 1.1035 -3.8411 1.748 -6.1914 l2.8906 0 l0 9.082 l0.16602 0 l0 1.6602 l-0.87891 0 l0 0.30273 l0.87891 0 l0 2.959 l-2.4609 0 l0 -1.084 l0.30273 0 l0 -3.3594 l-0.51758 0 l0 -1.6797 l-0.3125 0 l-0.019531 0.087891 l-0.26367 0 l0 2.3926 l-0.84961 0 l0 1.1133 l-0.73242 0 l0 1.8945 l-1.7285 0 l0 -1.2109 l-1.0645 0 l0 -1.6602 l-0.63477 0 l0 -1.7188 l-0.36133 0 c-0.013018 -0.097656 -0.091143 -0.39714 -0.23438 -0.89844 l2.4805 0 l-0.068359 -0.33203 l-2.4805 0 l0.068359 0.33203 l-0.33203 0 l0 2.168 l0.16602 0 l0 2.3926 l-0.61523 0 l0 0.42969 l0.61523 0 l0 0.63477 l-2.2266 0 l0 -2.8809 l-0.41992 0 l0 -10.625 z M24.845721875 12.5488 l0 0.16602 c0 0.14323 0.0065136 0.41992 0.019531 0.83008 l0.23438 0 c-0.15625 -0.63151 -0.23438 -0.96354 -0.23438 -0.99609 l-0.019531 0 z M31.398421875 12.5684 l-0.21484 0.97656 l0.21484 0 c0.013018 -0.40364 0.019531 -0.69661 0.019531 -0.87891 l0 -0.097656 l-0.019531 0 z M24.064421875 13.5449 l0 0.33203 l0.78125 0 l0 -0.33203 l-0.78125 0 z M28.908221875 13.5449 l-0.068359 0.33203 l2.2266 0 c0.065107 -0.17578 0.097656 -0.28646 0.097656 -0.33203 l-2.2559 0 z M31.417921874999998 13.5449 l0 0.33203 l1.709 0 l0 -0.33203 l-1.709 0 z M27.726521875 13.876999999999999 c0.11067 0.5013 0.18229 0.75195 0.21484 0.75195 l0.2832 0 l0 1.25 l0.44922 0 l0 -1.9336 l0.11719 0 l0 -0.068359 l-1.0645 0 z M34.073921874999996 16.7383 l1.416 0 l0 0.30273 l-1.416 0 l0 -0.30273 z M34.210921875 17.1582 l0.11719 -0.0000095367 l0 0.21484 l0.19531 0 l0 -0.16602 c0 -0.032549 0.016279 -0.048828 0.048828 -0.048828 l0.039063 0 c0.032549 0.0065136 0.048828 0.022793 0.048828 0.048838 l0 0.44922 c0 0.032549 -0.016279 0.048828 -0.048828 0.048828 l-0.087891 0 l0 -0.21484 l-0.19531 0 l0 0.21484 l-0.11719 0 l0 -0.54688 z M34.210921875 17.8711 l0.33203 -0.0000095367 c0.032549 0.0065136 0.048828 0.022793 0.048828 0.048838 l0 0.068359 l-0.26367 0 l0 0.097656 l0.21484 0 l0 0.11719 l-0.21484 0 l0 0.21484 l-0.11719 0 l0 -0.54688 z M34.239921875 18.584 l0.33202 0 c0.026045 0 0.039063 0.013018 0.039063 0.039063 l0 0.048828 l-0.25391 0.33203 l0.25391 0 l0 0.11719 l-0.40039 0 c-0.032549 0 -0.048828 -0.022783 -0.048828 -0.068359 c0.05208 -0.078125 0.13997 -0.19531 0.26367 -0.35156 l-0.23438 0 l0 -0.078125 c0.0065136 -0.026045 0.022793 -0.039063 0.048838 -0.039063 z M34.210921875 19.28708 l0.11719 -0.0000095367 l0 0.3125 l0.029297 0.11719 l0.11719 0 c0.032549 0 0.048828 -0.016279 0.048828 -0.048828 l0 -0.33203 c0 -0.032549 0.016279 -0.048828 0.048828 -0.048828 l0.039063 0 c0.032549 0.0065136 0.048828 0.022793 0.048828 0.048838 l0 0.2832 c0 0.14323 -0.071611 0.21484 -0.21484 0.21484 l-0.039063 0 c-0.091143 0 -0.15625 -0.039063 -0.19531 -0.11719 l0 -0.42969 z M22.169921875 19.6191 l2.5098 0 l0 0.21484 l-2.5098 0 l0 -0.21484 z M37.537108125 6.006 l2.6367 -0.0000095367 c0.026045 0.0065136 0.039063 0.022793 0.039063 0.048838 l0 6.7969 c0 0.032549 -0.013018 0.048828 -0.039063 0.048828 l-0.3125 0 l0 7.0508 c0 0.032549 -0.016279 0.048828 -0.048828 0.048828 l-2.2754 0 c-0.032549 0 -0.048828 -0.016279 -0.048828 -0.048828 l0 -7.2168 l-0.70313 0 c-0.032549 0 -0.048828 -0.016279 -0.048828 -0.048828 l0 -0.30273 c0.0065136 -0.032549 0.022793 -0.048828 0.048838 -0.048828 l0.70313 0 l0 -6.2793 c0.0065136 -0.032549 0.022793 -0.048828 0.048838 -0.048828 z M37.507788125 12.334 l0 0.40039 l1.3477 0 l0 -0.40039 l-1.3477 0 z M42.318356875 6.035 l4.7852 -0.0000095367 c1.6016 0 2.6367 0.56315 3.1055 1.6895 c0.20183 0.57942 0.30273 1.2435 0.30273 1.9922 l0 0.58594 c0 1.3542 -0.29622 2.386 -0.88867 3.0957 l-1.0156 0 l0 0.51758 l1.5527 0 l0 3.3398 l-0.91797 0 l0 0.51758 l1.3867 0 l0 1.9727 l-2.9102 0 l0 -3.1543 l-1.123 0 l0 -2.041 l-1.9531 0 l0 3.457 l0.41992 0 l0 1.9922 l-2.6953 0 c-0.032549 0 -0.048828 -0.016279 -0.048828 -0.048828 l0 -5.6055 l1.2012 0 l0 -0.40039 l-1.2012 0 l0 -7.9102 z M45.062496875 8.311 l0 3.9453 l0.66406 0 c0.99609 0 1.5723 -0.094404 1.7285 -0.2832 c0.16276 -0.10417 0.28972 -0.31576 0.38086 -0.63478 l1.0352 0 l0 -0.49805 l-0.9375 0 l0 0.048828 c-0.05208 0.29948 -0.091143 0.44922 -0.11719 0.44922 l-1.3379 0 l0 -0.49805 l1.4063 0 c0.032549 0 0.048828 -0.013018 0.048828 -0.039063 c0.013018 -0.40364 0.019531 -0.6315 0.019531 -0.68358 c0 -0.87239 -0.14974 -1.4063 -0.44922 -1.6016 c-0.23438 -0.13672 -0.66406 -0.20508 -1.2891 -0.20508 l-1.1523 0 z M44.759796875 14.668 l0.11719 0 c0.065107 0.032549 0.097656 0.081377 0.097656 0.14648 c0.026045 0 0.055342 -0.048828 0.087891 -0.14648 l0.14648 0 l0 0.029297 l-0.14648 0.20508 c0 0.013018 0.055342 0.10091 0.16602 0.26367 l0 0.019531 l-0.11719 0 c-0.013018 0 -0.058594 -0.055342 -0.13672 -0.16602 c-0.045576 0.10417 -0.084639 0.15951 -0.11719 0.16603 l-0.11719 0 c0.10417 -0.16276 0.15625 -0.25717 0.15625 -0.28321 z M44.779296875 15.3711 l0.42969 0 l0 0.078125 l-0.26367 0.32227 l0.26367 0 l0 0.11719 l-0.44922 0 l0 -0.087891 l0.25391 -0.33203 l-0.23438 0 l0 -0.097656 z"></path>
    </g>
</svg>