<?xml version="1.0" encoding="utf-8"?>
<!-- Generator: Adobe Illustrator 26.4.1, SVG Export Plug-In . SVG Version: 6.00 Build 0)  -->
<svg version="1.1" id="Layer_1" xmlns="http://www.w3.org/2000/svg" xmlns:xlink="http://www.w3.org/1999/xlink" x="0px" y="0px"
	 viewBox="0 0 5000 3500" style="enable-background:new 0 0 5000 3500;" xml:space="preserve">
<style type="text/css">
	.st0{filter:url(#Adobe_OpacityMaskFilter);}
	.st1{filter:url(#Adobe_OpacityMaskFilter_00000154425134593878030750000010264622924753413805_);}
	.st2{mask:url(#SVGID_1_);fill:url(#SVGID_00000040546172238268102710000017629940786975649675_);}
	.st3{fill:url(#SVGID_00000074419781706145971440000011178225756646635686_);}
	.st4{filter:url(#Adobe_OpacityMaskFilter_00000052791898327533345040000017212366394568911525_);}
	.st5{filter:url(#Adobe_OpacityMaskFilter_00000107557665538796960230000015076140996966455717_);}
	
		.st6{mask:url(#SVGID_00000115495728948063223150000015043888982541014932_);fill:url(#SVGID_00000160182302027553908440000009576789408377619084_);}
	.st7{fill:url(#SVGID_00000143589941648423994540000009670426601891552390_);}
</style>
<rect width="5000" height="3500"/>
<defs>
	<filter id="Adobe_OpacityMaskFilter" filterUnits="userSpaceOnUse" x="0" y="0" width="4194" height="3500">
		<feFlood  style="flood-color:white;flood-opacity:1" result="back"/>
		<feBlend  in="SourceGraphic" in2="back" mode="normal"/>
	</filter>
</defs>
<mask maskUnits="userSpaceOnUse" x="0" y="0" width="4194" height="3500" id="SVGID_1_">
	<g class="st0">
		<defs>
			
				<filter id="Adobe_OpacityMaskFilter_00000005226650492497394290000003291975369236656018_" filterUnits="userSpaceOnUse" x="0" y="0" width="4194" height="3500">
				<feFlood  style="flood-color:white;flood-opacity:1" result="back"/>
				<feBlend  in="SourceGraphic" in2="back" mode="normal"/>
			</filter>
		</defs>
		<mask maskUnits="userSpaceOnUse" x="0" y="0" width="4194" height="3500" id="SVGID_1_">
			<g style="filter:url(#Adobe_OpacityMaskFilter_00000005226650492497394290000003291975369236656018_);">
			</g>
		</mask>
		
			<linearGradient id="SVGID_00000108997477989768551960000017589007902464025255_" gradientUnits="userSpaceOnUse" x1="1751.3986" y1="2467.4451" x2="3102.1575" y2="-586.9744">
			<stop  offset="0.1667" style="stop-color:#000000"/>
			<stop  offset="0.6206" style="stop-color:#898989"/>
			<stop  offset="1" style="stop-color:#FFFFFF"/>
		</linearGradient>
		<path style="mask:url(#SVGID_1_);fill:url(#SVGID_00000108997477989768551960000017589007902464025255_);" d="M4194,2886.8
			c0,209.5-19.5,414.5-56.7,613.2h-383.2C3714.9,2084.9,2555.4,949.8,1130.9,949.8C726,949.8,342.5,1041.5,0,1205.2V0h2506.2
			C3513.7,567.9,4194,1647.9,4194,2886.8z"/>
	</g>
</mask>
<linearGradient id="SVGID_00000160183930572859894170000000674475291354828194_" gradientUnits="userSpaceOnUse" x1="1751.3986" y1="2467.4451" x2="3102.1575" y2="-586.9744">
	<stop  offset="0.1667" style="stop-color:#343A40"/>
	<stop  offset="1" style="stop-color:#555B60"/>
</linearGradient>
<path style="fill:url(#SVGID_00000160183930572859894170000000674475291354828194_);" d="M4194,2886.8
	c0,209.5-19.5,414.5-56.7,613.2h-383.2C3714.9,2084.9,2555.4,949.8,1130.9,949.8C726,949.8,342.5,1041.5,0,1205.2V0h2506.2
	C3513.7,567.9,4194,1647.9,4194,2886.8z"/>
<defs>
	
		<filter id="Adobe_OpacityMaskFilter_00000005973976797782698180000002526798481206421928_" filterUnits="userSpaceOnUse" x="0" y="949.8" width="3754.1" height="2550.2">
		<feFlood  style="flood-color:white;flood-opacity:1" result="back"/>
		<feBlend  in="SourceGraphic" in2="back" mode="normal"/>
	</filter>
</defs>
<mask maskUnits="userSpaceOnUse" x="0" y="949.8" width="3754.1" height="2550.2" id="SVGID_00000144296996205993408130000004449284961331213228_">
	<g style="filter:url(#Adobe_OpacityMaskFilter_00000005973976797782698180000002526798481206421928_);">
		<defs>
			
				<filter id="Adobe_OpacityMaskFilter_00000145747827627934658540000008568779373526961042_" filterUnits="userSpaceOnUse" x="0" y="949.8" width="3754.1" height="2550.2">
				<feFlood  style="flood-color:white;flood-opacity:1" result="back"/>
				<feBlend  in="SourceGraphic" in2="back" mode="normal"/>
			</filter>
		</defs>
		
			<mask maskUnits="userSpaceOnUse" x="0" y="949.8" width="3754.1" height="2550.2" id="SVGID_00000144296996205993408130000004449284961331213228_">
			<g style="filter:url(#Adobe_OpacityMaskFilter_00000145747827627934658540000008568779373526961042_);">
			</g>
		</mask>
		
			<linearGradient id="SVGID_00000149365949245844656350000004972540032891542973_" gradientUnits="userSpaceOnUse" x1="3643.7104" y1="4018.9734" x2="-481.5957" y2="1256.6018">
			<stop  offset="0.1667" style="stop-color:#000000"/>
			<stop  offset="0.6206" style="stop-color:#898989"/>
			<stop  offset="1" style="stop-color:#FFFFFF"/>
		</linearGradient>
		
			<path style="mask:url(#SVGID_00000144296996205993408130000004449284961331213228_);fill:url(#SVGID_00000149365949245844656350000004972540032891542973_);" d="
			M3754.1,3500H0V1205.2c342.5-163.8,726-255.5,1130.9-255.5C2555.4,949.8,3714.9,2084.9,3754.1,3500z"/>
	</g>
</mask>
<linearGradient id="SVGID_00000146463722956377870060000004581322482375184774_" gradientUnits="userSpaceOnUse" x1="3643.7104" y1="4018.9734" x2="-481.5957" y2="1256.6018">
	<stop  offset="0.1667" style="stop-color:#343A40"/>
	<stop  offset="1" style="stop-color:#555B60"/>
</linearGradient>
<path style="fill:url(#SVGID_00000146463722956377870060000004581322482375184774_);" d="M3754.1,3500H0V1205.2
	c342.5-163.8,726-255.5,1130.9-255.5C2555.4,949.8,3714.9,2084.9,3754.1,3500z"/>
</svg>
